
    <svg width="131" height="153" viewBox="0 0 131 153" fill="none" xmlns="http://www.w3.org/2000/svg">
<path d="M19.638 67.043C8.80389 67.043 0 75.8436 0 86.6768C0 97.5086 8.80389 106.311 19.638 106.311C30.4736 106.311 39.2761 97.5086 39.2761 86.6768C39.2761 75.8436 30.4736 67.043 19.638 67.043ZM29.6828 89.554H22.5159V96.7194C22.5159 98.2993 21.2182 99.5966 19.638 99.5966C18.0578 99.5966 16.7602 98.2993 16.7602 96.7194V89.554H9.59327C8.01309 89.554 6.71543 88.2567 6.71543 86.6768C6.71543 85.097 8.01309 83.7996 9.59327 83.7996H16.817V76.6342C16.817 75.0543 18.1146 73.757 19.6948 73.757C21.275 73.757 22.5727 75.0543 22.5727 76.6342V83.7996H29.7396C31.263 83.7996 32.5606 85.097 32.5606 86.6768C32.5606 88.2567 31.263 89.554 29.6828 89.554Z" fill="#DFE3E8"/>
<path d="M89.9872 5.27295C42.7365 -19.4475 3.90091 49.3327 50.408 75.5232C73.4827 88.5177 103.901 75.2164 109.478 49.4701C109.494 49.4381 109.513 49.4042 109.564 49.3911C110.328 49.1765 118.683 46.8426 120.212 46.4172C120.314 46.3871 120.304 46.2535 120.238 46.2177L110.56 40.7651C110.528 40.7481 110.513 40.6973 110.513 40.6973C110.611 26.502 103.186 12.7056 89.9872 5.27295Z" fill="#DFE3E8"/>
<path d="M30.6581 96.4144C27.8081 98.0137 26.1045 101.087 26.1045 104.356V111.016V138.325V143.882C26.1045 148.917 30.187 152.998 35.2225 152.998H60.4806C63.4578 152.998 66.2631 151.592 68.0455 149.209L90.1616 119.609C92.322 116.719 91.7666 112.56 88.8181 110.479C85.9931 108.478 82.0933 109.1 80.0261 111.865L75.9543 117.315C72.5311 121.895 65.2456 119.475 65.2456 113.758V69.5085C65.2456 66.2741 62.7091 63.5392 59.4757 63.4515C56.1204 63.3601 53.3725 66.052 53.3725 69.385V87.9233C53.3725 88.1293 53.1486 88.2547 52.9712 88.1526C50.2484 86.5837 46.7517 87.558 44.9227 90.1907C44.319 91.0576 44.1058 91.1346 43.1277 90.8014C39.8531 89.6857 35.8799 91.8295 34.9413 95.1374C34.8929 95.3093 34.7299 95.4257 34.5525 95.415C33.2233 95.3505 31.878 95.7302 30.6581 96.4144Z" fill="#919EAB"/>
<path d="M53.3728 88.3164L53.2939 108.223L53.3728 88.3164Z" fill="#919EAB"/>
<path fill-rule="evenodd" clip-rule="evenodd" d="M53.374 87.957C53.5724 87.9578 53.7326 88.1193 53.7319 88.3176L53.653 108.224C53.6522 108.423 53.4908 108.583 53.2924 108.582C53.094 108.581 52.9338 108.42 52.9346 108.221L53.0134 88.3148C53.0142 88.1164 53.1756 87.9562 53.374 87.957Z" fill="#DFE3E8"/>
<path d="M44.1367 90.9922L44.0938 111.017L44.1367 90.9922Z" fill="#919EAB"/>
<path fill-rule="evenodd" clip-rule="evenodd" d="M44.1374 90.6328C44.3358 90.6332 44.4963 90.7944 44.4958 90.9927L44.4528 111.018C44.4524 111.216 44.2912 111.376 44.0928 111.376C43.8944 111.376 43.734 111.214 43.7344 111.016L43.7774 90.9912C43.7778 90.7928 43.939 90.6324 44.1374 90.6328Z" fill="#DFE3E8"/>
<path d="M34.7998 95.5547L34.8912 114.942L34.7998 95.5547Z" fill="#919EAB"/>
<path fill-rule="evenodd" clip-rule="evenodd" d="M34.798 95.1992C34.9964 95.1983 35.158 95.3583 35.1589 95.5567L35.2503 114.944C35.2512 115.142 35.0911 115.304 34.8927 115.305C34.6943 115.306 34.5327 115.146 34.5318 114.947L34.4404 95.5601C34.4395 95.3617 34.5996 95.2002 34.798 95.1992Z" fill="#DFE3E8"/>
<path d="M55.3037 65.3789V71.1924C55.3037 73.3756 57.0754 75.1451 59.259 75.1451C61.4427 75.1451 63.2143 73.3756 63.2143 71.1924V65.3789" fill="#919EAB"/>
<path fill-rule="evenodd" clip-rule="evenodd" d="M55.3036 65.0195C55.502 65.0195 55.6628 65.1803 55.6628 65.3787V71.1922C55.6628 73.1768 57.2734 74.7857 59.2589 74.7857C61.2444 74.7857 62.855 73.1768 62.855 71.1922V65.3787C62.855 65.1803 63.0158 65.0195 63.2142 65.0195C63.4126 65.0195 63.5734 65.1803 63.5734 65.3787V71.1922C63.5734 73.574 61.6407 75.504 59.2589 75.504C56.877 75.504 54.9443 73.574 54.9443 71.1922V65.3787C54.9443 65.1803 55.1052 65.0195 55.3036 65.0195Z" fill="#DFE3E8"/>
<path d="M87.6645 110.168L84.5279 115.059C83.3474 116.898 83.8812 119.345 85.7209 120.523C86.6381 121.111 87.7111 121.274 88.6999 121.057" fill="#919EAB"/>
<path fill-rule="evenodd" clip-rule="evenodd" d="M87.8583 109.865C88.0253 109.973 88.0739 110.195 87.9668 110.362L84.8302 115.253C83.7567 116.925 84.2422 119.15 85.9146 120.221C86.7486 120.755 87.7237 120.903 88.6229 120.706C88.8167 120.664 89.0082 120.786 89.0507 120.98C89.0932 121.174 88.9705 121.365 88.7767 121.408C87.6982 121.644 86.5273 121.466 85.527 120.826C83.52 119.54 82.9379 116.871 84.2253 114.865C84.2253 114.865 84.2254 114.865 84.2253 114.865L87.362 109.974C87.4691 109.807 87.6913 109.758 87.8583 109.865Z" fill="#DFE3E8"/>
<path d="M12.0636 13.7976C15.2438 13.7976 17.8758 9.42481 17.8758 4.15789C17.8758 3.94488 17.9599 3.739 18.111 3.5877C18.2622 3.43641 18.466 3.35156 18.6812 3.35156C18.8939 3.35156 19.0996 3.43641 19.2507 3.5877C19.4018 3.739 19.4866 3.94488 19.4866 4.15789C19.4866 9.33996 22.1156 13.7976 25.2987 13.7976C25.5115 13.7976 25.7171 13.8824 25.8682 14.0361C26.0194 14.1874 26.1041 14.3909 26.1041 14.6063C26.1041 14.8193 26.0194 15.0258 25.8682 15.1771C25.7171 15.3278 25.5115 15.4126 25.2987 15.4126C22.118 15.4126 19.4866 19.786 19.4866 25.0523C19.4866 25.2653 19.4018 25.4718 19.2507 25.6231C19.0996 25.7744 18.8939 25.8587 18.6812 25.8587C18.466 25.8587 18.2622 25.7744 18.111 25.6231C17.9599 25.4718 17.8758 25.2653 17.8758 25.0523C17.8758 19.8708 15.2438 15.4126 12.0636 15.4126C11.8485 15.4126 11.6446 15.3278 11.4935 15.1771C11.3424 15.0258 11.2559 14.8193 11.2559 14.6063C11.2559 14.3909 11.3424 14.1874 11.4935 14.0361C11.6446 13.8824 11.8485 13.7976 12.0636 13.7976Z" fill="#919EAB"/>
<path d="M96.5777 98.5732C104.372 98.5732 110.824 87.7818 110.824 74.7806C110.824 74.2527 111.036 73.7492 111.403 73.3802C111.777 73.0011 112.277 72.7891 112.801 72.7891C113.324 72.7891 113.824 73.0011 114.198 73.3802C114.567 73.7492 114.777 74.2527 114.777 74.7806C114.777 87.5698 121.229 98.5732 129.023 98.5732C129.547 98.5732 130.055 98.7852 130.423 99.1542C130.798 99.5333 131 100.037 131 100.565C131 101.091 130.798 101.594 130.423 101.973C130.055 102.342 129.547 102.554 129.023 102.554C121.229 102.554 114.777 113.354 114.777 126.347C114.777 126.875 114.567 127.378 114.198 127.755C113.824 128.126 113.324 128.338 112.801 128.338C112.277 128.338 111.777 128.126 111.403 127.755C111.036 127.378 110.824 126.875 110.824 126.347C110.824 113.558 104.372 102.554 96.5777 102.554C96.3127 102.562 96.0537 102.516 95.8109 102.422C95.5621 102.326 95.3436 102.177 95.1555 101.988C94.9754 101.808 94.8277 101.58 94.7347 101.335C94.6315 101.091 94.5931 100.832 94.6012 100.565C94.585 100.296 94.6254 100.029 94.7104 99.7841C94.8035 99.5333 94.9532 99.305 95.1393 99.1155C95.3274 98.9259 95.554 98.7852 95.7968 98.6915C96.0456 98.5957 96.3127 98.5569 96.5777 98.5732Z" fill="#C4CDD5"/>
<path d="M80.7147 19.1562H60.3747C59.4359 19.1562 58.6748 19.9172 58.6748 20.8558V59.3582C58.6748 60.2968 59.4359 61.0577 60.3747 61.0577H80.7147C81.6535 61.0577 82.4145 60.2968 82.4145 59.3582V20.8558C82.4145 19.9172 81.6535 19.1562 80.7147 19.1562Z" fill="#919EAB"/>
<path d="M79.8981 23.9727H61.191C60.911 23.9727 60.6855 24.1989 60.6855 24.478V52.976C60.6855 53.2559 60.911 53.4822 61.191 53.4822H79.8981C80.1772 53.4822 80.4036 53.2559 80.4036 52.976V24.478C80.4036 24.1989 80.1772 23.9727 79.8981 23.9727Z" fill="#DFE3E8"/>
<path d="M70.5445 59.1332C71.5588 59.1332 72.381 58.3111 72.381 57.2971C72.381 56.283 71.5588 55.4609 70.5445 55.4609C69.5303 55.4609 68.708 56.283 68.708 57.2971C68.708 58.3111 69.5303 59.1332 70.5445 59.1332Z" fill="#C4CDD5"/>
<path d="M68.5508 21.5547H74.7946" stroke="#C4CDD5" stroke-width="3" stroke-linecap="round" stroke-linejoin="round"/>
<path d="M66.6568 21.8819C66.8379 21.8819 66.9837 21.7352 66.9837 21.5551C66.9837 21.3732 66.8379 21.2266 66.6568 21.2266C66.4758 21.2266 66.3291 21.3732 66.3291 21.5551C66.3291 21.7352 66.4758 21.8819 66.6568 21.8819Z" fill="#C4CDD5"/>
<path d="M71.5587 36.4724V38.104C71.5587 38.2212 71.4691 38.3108 71.3519 38.3108H71.0831C70.9659 38.3108 70.8764 38.2212 70.8764 38.104V37.1607C70.8764 37.0438 70.7868 36.954 70.6696 36.954H69.7195C69.6023 36.954 69.5127 36.8644 69.5127 36.7475V36.4724C69.5127 36.3554 69.6023 36.2656 69.7195 36.2656H71.3587C71.4617 36.2656 71.5587 36.3548 71.5587 36.4724Z" fill="#919EAB"/>
<path d="M67.2259 39.6891H66.9576C66.8406 39.6891 66.7508 39.5993 66.7508 39.4823V38.5325C66.7508 38.4153 66.6612 38.3257 66.5442 38.3257H65.5933C65.4763 38.3257 65.3867 38.2361 65.3867 38.119V37.8435C65.3867 37.7263 65.4763 37.6367 65.5933 37.6367H67.2259C67.3431 37.6367 67.4327 37.7263 67.4327 37.8435V39.4823C67.4327 39.5993 67.3363 39.6891 67.2259 39.6891Z" fill="#919EAB"/>
<path d="M68.1211 39.4829V37.8507C68.1211 37.7337 68.2107 37.6445 68.3279 37.6445H68.6035C68.7206 37.6445 68.8102 37.7337 68.8102 37.8507V38.7946C68.8102 38.9115 68.8998 39.0013 69.017 39.0013H69.9743C70.0915 39.0013 70.1811 39.0909 70.1811 39.2078V39.4829C70.1811 39.5999 70.0915 39.6897 69.9743 39.6897H68.3351C68.2175 39.6897 68.1211 39.5933 68.1211 39.4829Z" fill="#919EAB"/>
<path d="M70.877 40.8545V40.5861C70.877 40.4692 70.9665 40.3796 71.0837 40.3796H72.0344C72.1514 40.3796 72.2412 40.2898 72.2412 40.1729V39.2224C72.2412 39.1052 72.3308 39.0156 72.4478 39.0156H72.723C72.84 39.0156 72.9298 39.1052 72.9298 39.2224V40.8612C72.9298 40.9782 72.84 41.068 72.723 41.068H71.0837C70.9665 41.0612 70.877 40.9716 70.877 40.8545Z" fill="#919EAB"/>
<path d="M69.499 35.3512V33.7263C69.499 33.6091 69.5886 33.5195 69.7058 33.5195H69.9746C70.0918 33.5195 70.1814 33.6091 70.1814 33.7263V34.6768C70.1814 34.7937 70.2705 34.8829 70.3875 34.8829H71.345C71.462 34.8829 71.5518 34.9725 71.5518 35.0896V35.3584C71.5518 35.4755 71.462 35.5651 71.345 35.5651H69.7058C69.5886 35.5579 69.499 35.4683 69.499 35.3512Z" fill="#919EAB"/>
<path d="M71.5587 41.9685V43.6008C71.5587 43.7177 71.4691 43.8073 71.3519 43.8073H71.0831C70.9659 43.8073 70.8763 43.7177 70.8763 43.6008V42.6568C70.8763 42.5399 70.7867 42.4501 70.6695 42.4501H69.712C69.595 42.4501 69.5059 42.3611 69.5059 42.244V41.9685C69.5059 41.8513 69.595 41.7617 69.712 41.7617H71.3519C71.4617 41.7617 71.5587 41.8513 71.5587 41.9685Z" fill="#919EAB"/>
<path d="M75.4645 41.068H75.2095C75.0923 41.068 75.0027 40.9782 75.0027 40.8612V39.9112C75.0027 39.7942 74.9131 39.7046 74.7959 39.7046H73.8386C73.7214 39.7046 73.6318 39.6148 73.6318 39.4979V39.2224C73.6318 39.1052 73.7214 39.0156 73.8386 39.0156H75.4645C75.5815 39.0156 75.671 39.1052 75.671 39.2224V40.8612C75.671 40.9716 75.5815 41.068 75.4645 41.068Z" fill="#919EAB"/>
<path d="M73.6254 42.9323V41.9685C73.6254 41.8513 73.715 41.7617 73.8322 41.7617H74.1005C74.2175 41.7617 74.3073 41.8513 74.3073 41.9685V43.6008C74.3073 43.7177 74.2175 43.8073 74.1005 43.8073H72.4679C72.3509 43.8073 72.2617 43.7177 72.2617 43.6008V43.3458C72.2617 43.2287 72.3509 43.1391 72.4679 43.1391H73.4254C73.529 43.1391 73.6254 43.0427 73.6254 42.9323Z" fill="#919EAB"/>
<path d="M75.6778 37.8435V38.105C75.6778 38.2221 75.5882 38.3117 75.4711 38.3117H73.8386C73.7214 38.3117 73.6318 38.2221 73.6318 38.105V37.8435C73.6318 37.7263 73.7214 37.6367 73.8386 37.6367H75.4711C75.5815 37.6367 75.6778 37.7263 75.6778 37.8435Z" fill="#919EAB"/>
<path d="M75.2165 41.7617H75.4647C75.5817 41.7617 75.6713 41.8513 75.6713 41.9685V43.6008C75.6713 43.7177 75.5817 43.8073 75.4647 43.8073H75.2165C75.0994 43.8073 75.0098 43.7177 75.0098 43.6008V41.9685C75.0098 41.8513 75.1062 41.7617 75.2165 41.7617Z" fill="#919EAB"/>
<path d="M70.0436 38.3189H69.6368C69.5612 38.3189 69.499 38.2567 69.499 38.1812V37.7745C69.499 37.6989 69.5612 37.6367 69.6368 37.6367H70.0436C70.1192 37.6367 70.1814 37.6989 70.1814 37.7745V38.1812C70.1814 38.2567 70.1192 38.3189 70.0436 38.3189Z" fill="#919EAB"/>
<path d="M72.4672 37.6367H72.8808C72.9564 37.6367 73.0186 37.6989 73.0186 37.7745V38.1812C73.0186 38.2567 72.9564 38.3189 72.8808 38.3189H72.4672C72.3917 38.3189 72.3301 38.2567 72.3301 38.1812V37.7745C72.3301 37.6989 72.3917 37.6367 72.4672 37.6367Z" fill="#919EAB"/>
<path d="M71.4215 39.6896H71.0147C70.9392 39.6896 70.877 39.628 70.877 39.5518V39.1456C70.877 39.07 70.9392 39.0078 71.0147 39.0078H71.4215C71.4971 39.0078 71.5593 39.07 71.5593 39.1456V39.5518C71.5521 39.628 71.4971 39.6896 71.4215 39.6896Z" fill="#919EAB"/>
<path d="M70.0436 41.0673H69.6368C69.5612 41.0673 69.499 41.0055 69.499 40.9295V40.5167C69.499 40.4405 69.5612 40.3789 69.6368 40.3789H70.0436C70.1192 40.3789 70.1814 40.4405 70.1814 40.5167V40.9295C70.1814 41.0055 70.1192 41.0673 70.0436 41.0673Z" fill="#919EAB"/>
<path d="M72.9297 41.8995V42.3057C72.9297 42.3817 72.8679 42.4435 72.7919 42.4435H72.379C72.3028 42.4435 72.2412 42.3817 72.2412 42.3057V41.8995C72.2412 41.8239 72.3028 41.7617 72.379 41.7617H72.7919C72.8747 41.7617 72.9297 41.8239 72.9297 41.8995Z" fill="#919EAB"/>
<path d="M71.0216 33.5195H71.4211C71.4967 33.5195 71.5589 33.5817 71.5589 33.6573V34.0568C71.5589 34.1323 71.4967 34.1945 71.4211 34.1945H71.0216C70.9454 34.1945 70.8838 34.1323 70.8838 34.0568V33.6573C70.8906 33.5745 70.9454 33.5195 71.0216 33.5195Z" fill="#919EAB"/>
<path d="M65.3799 39.5529V39.1534C65.3799 39.0778 65.4421 39.0156 65.5177 39.0156H65.9172C65.9928 39.0156 66.055 39.0778 66.055 39.1534V39.5529C66.055 39.629 65.9928 39.6906 65.9172 39.6906H65.5177C65.4421 39.6838 65.3799 39.629 65.3799 39.5529Z" fill="#919EAB"/>
<path d="M74.1623 41.0673H73.7628C73.6872 41.0673 73.625 41.0055 73.625 40.9295V40.5167C73.625 40.4405 73.6872 40.3789 73.7628 40.3789H74.1623C74.2379 40.3789 74.3001 40.4405 74.3001 40.5167V40.9295C74.3001 41.0055 74.2379 41.0673 74.1623 41.0673Z" fill="#919EAB"/>
<path d="M69.6368 43.1406H70.0436C70.1192 43.1406 70.1814 43.2028 70.1814 43.2784V43.6711C70.1814 43.7466 70.1192 43.8088 70.0436 43.8088H69.6368C69.5612 43.8088 69.499 43.7466 69.499 43.6711V43.2784C69.5062 43.2028 69.5678 43.1406 69.6368 43.1406Z" fill="#919EAB"/>
<path d="M68.6866 33.5195H65.5037C65.4353 33.5195 65.3799 33.5749 65.3799 33.6433V36.8181C65.3799 36.8865 65.4353 36.9425 65.5037 36.9425H68.6866C68.7547 36.9425 68.8103 36.8865 68.8103 36.8181V33.6433C68.8036 33.5745 68.7554 33.5195 68.6866 33.5195ZM68.1078 34.3115V36.1225V36.1303C68.1078 36.1948 68.0557 36.2469 67.9912 36.2469H67.9834H66.1788H66.1716C66.1088 36.2469 66.0556 36.1975 66.055 36.1349C66.055 36.133 66.055 36.1314 66.055 36.1297C66.055 36.1297 66.055 36.1297 66.055 36.1225C66.055 36.1157 66.055 36.1089 66.055 36.1023C66.055 35.5169 66.055 34.9243 66.055 34.3391C66.055 34.2287 66.0756 34.1877 66.1996 34.1877C66.7989 34.1945 67.3913 34.1877 67.9906 34.1877C67.9906 34.1877 67.9912 34.1877 67.9919 34.1877C68.0557 34.1877 68.1078 34.2398 68.1078 34.3043V34.3115Z" fill="#919EAB"/>
<path d="M75.4086 33.5195H72.5229C72.3744 33.5195 72.2539 33.64 72.2539 33.7885V36.6735C72.2539 36.822 72.3744 36.9425 72.5229 36.9425H75.4086C75.5571 36.9425 75.6776 36.822 75.6776 36.6735V33.7885C75.6776 33.6406 75.5565 33.5195 75.4086 33.5195ZM74.9353 36.2469H72.9962C72.9665 36.2469 72.943 36.2228 72.943 36.1936V34.2544C72.943 34.2252 72.9665 34.2011 72.9962 34.2011H74.9353C74.965 34.2011 74.9884 34.2252 74.9884 34.2544V36.1936C74.9884 36.2228 74.965 36.2469 74.9353 36.2469Z" fill="#919EAB"/>
<path d="M68.6866 40.3867H65.5111C65.4421 40.3867 65.3867 40.4423 65.3867 40.5105V43.6927C65.3867 43.7611 65.4421 43.8165 65.5111 43.8165H68.6866C68.7548 43.8165 68.8104 43.7611 68.8104 43.6927V40.5105C68.8036 40.4417 68.7482 40.3867 68.6866 40.3867ZM68.1079 41.1995V43.0037C68.1079 43.0721 68.0522 43.1275 67.9835 43.1275H66.1856C66.1173 43.1275 66.0616 43.0721 66.0616 43.0037V41.1995C66.0616 41.1311 66.1173 41.0757 66.1856 41.0757H67.9835C68.0522 41.0757 68.1079 41.1311 68.1079 41.1995Z" fill="#919EAB"/>
<path d="M66.8888 34.8906H67.2951C67.3707 34.8906 67.4329 34.9524 67.4329 35.0284V35.4347C67.4329 35.5102 67.3707 35.5724 67.2951 35.5724H66.8888C66.8128 35.5724 66.751 35.5102 66.751 35.4347V35.0212C66.751 34.9456 66.8128 34.8906 66.8888 34.8906Z" fill="#919EAB"/>
<path d="M73.6318 35.4207V35.0284C73.6318 34.9524 73.694 34.8906 73.7696 34.8906H74.1692C74.2452 34.8906 74.307 34.9524 74.307 35.0284V35.4207C74.307 35.4968 74.2452 35.5584 74.1692 35.5584H73.7696C73.694 35.5584 73.6318 35.4968 73.6318 35.4207Z" fill="#919EAB"/>
<path d="M66.8888 41.7617H67.2951C67.3707 41.7617 67.4329 41.8239 67.4329 41.8995V42.3057C67.4329 42.3817 67.3707 42.4435 67.2951 42.4435H66.8888C66.8128 42.4435 66.751 42.3817 66.751 42.3057V41.8995C66.7578 41.8239 66.82 41.7617 66.8888 41.7617Z" fill="#919EAB"/>
</svg>
  