<?xml version="1.0" encoding="UTF-8"?>
<svg width="12" height="12" viewBox="0 0 12 12" fill="none" xmlns="http://www.w3.org/2000/svg">
    <path fill-rule="evenodd" clip-rule="evenodd" d="M6.75 1.00061C6.75 0.586396 6.41421 0.250611 6 0.250611C5.58579 0.250611 5.25 0.586396 5.25 1.00061V5.25H1.00061C0.586396 5.25 0.250611 5.58579 0.250611 6C0.250611 6.41421 0.586396 6.75 1.00061 6.75H5.25V10.9995C5.25 11.4137 5.58579 11.7495 6 11.7495C6.41421 11.7495 6.75 11.4137 6.75 10.9995V6.75H10.9995C11.4137 6.75 11.7495 6.41421 11.7495 6C11.7495 5.58579 11.4137 5.25 10.9995 5.25H6.75V1.00061Z" fill="white"/>
</svg>
